<svg xmlns="http://www.w3.org/2000/svg" viewBox="0 0 512 512">
  <defs>
    <linearGradient id="bg" x1="0%" y1="0%" x2="100%" y2="100%">
      <stop offset="0%" style="stop-color:#0a0a0f"/>
      <stop offset="100%" style="stop-color:#12121a"/>
    </linearGradient>
    <linearGradient id="glow" x1="0%" y1="0%" x2="100%" y2="100%">
      <stop offset="0%" style="stop-color:#00d4ff"/>
      <stop offset="100%" style="stop-color:#a855f7"/>
    </linearGradient>
  </defs>
  <rect width="512" height="512" rx="96" fill="url(#bg)"/>
  <g transform="translate(96, 128)">
    <!-- Keyboard key shape -->
    <rect x="0" y="0" width="320" height="256" rx="24" fill="none" stroke="url(#glow)" stroke-width="8"/>
    <!-- Key rows -->
    <rect x="32" y="32" width="56" height="56" rx="8" fill="url(#glow)" opacity="0.3"/>
    <rect x="104" y="32" width="56" height="56" rx="8" fill="url(#glow)" opacity="0.5"/>
    <rect x="176" y="32" width="56" height="56" rx="8" fill="url(#glow)" opacity="0.3"/>
    <rect x="248" y="32" width="40" height="56" rx="8" fill="url(#glow)" opacity="0.4"/>
    <!-- Middle row -->
    <rect x="32" y="104" width="56" height="56" rx="8" fill="url(#glow)" opacity="0.4"/>
    <rect x="104" y="104" width="56" height="56" rx="8" fill="#00d4ff"/>
    <rect x="176" y="104" width="56" height="56" rx="8" fill="url(#glow)" opacity="0.4"/>
    <rect x="248" y="104" width="40" height="56" rx="8" fill="url(#glow)" opacity="0.3"/>
    <!-- Bottom row - spacebar -->
    <rect x="32" y="176" width="256" height="48" rx="8" fill="url(#glow)" opacity="0.2"/>
    <!-- Lightning bolt accent -->
    <path d="M140 108 L124 136 L140 136 L124 156 L148 128 L132 128 Z" fill="#0a0a0f"/>
  </g>
</svg>
